# AST/ASF file generated using VICON BodyLanguage
# -----------------------------------------------
:version 1.10
:name VICON
:units
  mass 1.0
  length 0.45
  angle deg
:documentation
   .ast/.asf automatically generated from VICON data using
   VICON BodyBuilder and BodyLanguage model FoxedUp or BRILLIANT.MOD
:root
   order TX TY TZ RX RY RZ
   axis XYZ
   position 0 0 0  
   orientation 0 0 0 
:bonedata
  begin
     id 1 
     name lhipjoint
     direction 0.630082 -0.636569 0.44472 
     length 2.82754 
     axis 0 0 0  XYZ
  end
  begin
     id 2 
     name lfemur
     direction 0.34202 -0.939693 0  
     length 7.26371  
     axis 0 0 20  XYZ
    dof rx ry rz
    limits (-160.0 20.0)
           (-70.0 70.0)
           (-60.0 70.0)
  end
  begin
     id 3 
     name ltibia
     direction 0.34202 -0.939693 0   
     length 7.88616   
     axis 0 0 20   XYZ
    dof rx
    limits (-10.0 170.0)
  end
  begin
     id 4 
     name lfoot
     direction 0.0603448 -0.165796 0.984312   
     length 1.77861   
     axis -90 7.62852e-016 20   XYZ
    dof rx rz
    limits (-45.0 90.0)
           (-70.0 20.0)
  end
  begin
     id 5 
     name ltoes
     direction 1.53577e-011 -4.21876e-011 1   
     length 0.902235   
     axis -90 7.62852e-016 20   XYZ
    dof rx
    limits (-90.0 20.0)
  end
  begin
     id 6 
     name rhipjoint
     direction -0.656778 -0.61817 0.431866   
     length 2.9117  
     axis 0 0 0  XYZ 
  end
  begin
     id 7 
     name rfemur
     direction -0.34202 -0.939693 0   
     length 6.81603   
     axis 0 0 -20   XYZ
    dof rx ry rz
    limits (-160.0 20.0)
           (-70.0 70.0)
           (-70.0 60.0)
  end
  begin
     id 8 
     name rtibia
     direction -0.34202 -0.939693 0   
     length 8.05997   
     axis 0 0 -20   XYZ
    dof rx
    limits (-10.0 170.0)
 end
 begin
     id 9 
     name rfoot
     direction -0.0862404 -0.236944 0.967688   
     length 1.84899  
     axis -90 -7.62852e-016 -20   XYZ
    dof rx rz
    limits (-45.0 90.0)
           (-20.0 70.0)
  end
  begin
     id 10 
     name rtoes
     direction -1.53561e-011 -4.21798e-011 1   
     length 0.931579   
     axis -90 -7.62852e-016 -20   XYZ
    dof rx
    limits (-90.0 20.0)
  end
  begin
     id 11 
     name lowerback
     direction -0.0110203 0.991769 -0.127564   
     length 2.05686   
     axis 0 0 0   XYZ
    dof rx ry rz
    limits (-20.0 45.0)
           (-30.0 30.0)
           (-30.0 30.0)
  end
  begin
     id 12 
     name upperback
     direction 0.0109719 0.99993 -0.00432479   
     length 2.06234   
     axis 0 0 0   XYZ
    dof rx ry rz
    limits (-20.0 45.0)
           (-30.0 30.0)
           (-30.0 30.0)
  end
  begin
     id 13 
     name thorax
     direction 0.0173308 0.998351 0.0547306   
     length 2.09856   
     axis 0 0 0   XYZ
    dof rx ry rz
    limits (-20.0 45.0)
           (-30.0 30.0)
           (-30.0 30.0)
  end
  begin
     id 14 
     name lowerneck
     direction -0.0311736 0.989033 0.144366   
     length 1.98151   
     axis 0 0 0   XYZ
    dof rx ry rz
    limits (-20.0 45.0)
           (-30.0 30.0)
           (-30.0 30.0)
  end
  begin
     id 15 
     name upperneck
     direction 0.0421057 0.975772 -0.214698   
     length 2.01457   
     axis 0 0 0   XYZ
    dof rx ry rz
    limits (-20.0 45.0)
           (-30.0 30.0)
           (-30.0 30.0)
  end
  begin
     id 16
     name head
     direction 0.0136911 0.995958 -0.0887718  
     length 2.03562  
     axis 0 0 0   XYZ
    dof rx ry rz
    limits (-20.0 45.0)
           (-30.0 30.0)
           (-30.0 30.0)
  end
  begin
     id 17 
     name lclavicle
     direction 0.915335 0.396201 0.0720134  
     length 4.16217  
     axis 0 0 0   XYZ
    dof ry rz
    limits (-20.0 10.0)
           (0.0 20.0)
  end
  begin
     id 18 
     name lhumerus
     direction 1 -4.48965e-011 6.383e-018   
     length 4.93042   
     axis -180 -30 -90   XYZ
    dof rx ry rz
    limits (-60.0 90.0)
           (-90.0 90.0)
           (-90.0 90.0)
  end
  begin
     id 19
     name lradius
     direction 1 -4.48972e-011 8.8689e-027   
     length 3.68177   
     axis -180 -30 -90   XYZ
    dof rx
    limits (-10.0 170.0)
  end
  begin
     id 20
     name lwrist
     direction 1 -4.48953e-011 1.17971e-026   
     length 1.84089   
     axis -7.69454e-015 90 90   XYZ
    dof ry
    limits (-180.0 0.0)
 end
  begin
     id 21 
     name lhand
     direction 1 -4.49027e-011 2.35802e-026   
     length 0.721479   
     axis -1.50533e-014 90 90   XYZ
    dof rx rz
    limits (-90.0 90.0)
           (-45.0 45.0)
  end
  begin
     id 22 
     name lfingers
     direction 1 -4.48915e-011 4.72027e-026   
     length 0.581675   
     axis -3.01059e-014 90 90   XYZ
    dof rx
    limits (0.0 90.0)
  end
  begin
     id 23
     name lthumb
     direction 0.707107 -6.34948e-011 0.707107   
     length 0.835172   
     axis -90 45 -5.12164e-014   XYZ
    dof rx rz
    limits (-45.0 45.0)
           (-45.0 45.0)
  end
  begin
     id 24 
     name rclavicle
     direction -0.882781 0.469197 0.0234974   
     length 3.95647  
     axis 0 0 0   XYZ 
    dof ry rz
    limits (-10.0 20.0)
           (-20.0 0.0)
  end
  begin
     id 25 
     name rhumerus
     direction -1 -4.48965e-011 -1.54906e-018  
     length 5.07905   
     axis -180 30 90   XYZ
    dof rx ry rz
    limits (-90.0 60.0)
           (-90.0 90.0)
           (-90.0 90.0)
  end
  begin
     id 26 
     name rradius
     direction -1 -4.48972e-011 5.47489e-027   
     length 3.54394   
     axis -180 30 90   XYZ
    dof rx
    limits (-10.0 170.0)
  end
  begin
     id 27 
     name rwrist
     direction -1 -4.48955e-011 1.17969e-026   
     length 1.77197   
     axis -7.69454e-015 -90 -90   XYZ
    dof ry
    limits (-180.0 0.0)
  end
  begin
     id 28
     name rhand
     direction -1 -4.48982e-011 2.35888e-026   
     length 0.681156   
     axis -1.50533e-014 -90 -90   XYZ
    dof rx rz
    limits (-90.0 90.0)
           (-45.0 45.0)
  end
  begin
     id 29
     name rfingers
     direction -1 -4.48955e-011 4.71877e-026   
     length 0.549165   
     axis -3.01059e-014 -90 -90   XYZ
    dof rx
    limits (0.0 90.0)
  end
  begin
     id 30
     name rthumb
     direction -0.707107 -6.3491e-011 0.707107   
     length 0.788495   
     axis -90 -45 5.12164e-014   XYZ
    dof rx rz
    limits (-45.0 45.0)
           (-45.0 45.0)
  end
:hierarchy
  begin
    root lhipjoint rhipjoint lowerback
    lhipjoint lfemur
    lfemur ltibia
    ltibia lfoot
    lfoot ltoes
    rhipjoint rfemur
    rfemur rtibia
    rtibia rfoot
    rfoot rtoes
    lowerback upperback
    upperback thorax
    thorax lowerneck lclavicle rclavicle
    lowerneck upperneck
    upperneck head
    lclavicle lhumerus
    lhumerus lradius
    lradius lwrist
    lwrist lhand lthumb
    lhand lfingers
    rclavicle rhumerus
    rhumerus rradius
    rradius rwrist
    rwrist rhand rthumb
    rhand rfingers
  end

#!OML:ASF H:\Bending\Project 1\Capture day 1\Session 1\Subject.ASF
:FULLY-SPECIFIED
:DEGREES
80
root -12.538 17.3464 -16.3767 -184.039 84.1834 -219.97
lowerback 52.8988 -5.33669 2.4104
upperback 9.73388 -3.09521 -0.966564
thorax -10.1379 -0.591163 -0.911407
lowerneck -14.7734 -3.22886 -7.92446
upperneck 8.28607 -3.57872 6.90123
head 5.16603 -1.54378 3.13901
rclavicle 1.09332e-014 -5.73742e-014
rhumerus 44.0253 12.3028 -71.6748
rradius 31.9579
rwrist 4.03744
rhand -22.3337 -22.957
rfingers 7.12502
rthumb 4.08651 -52.8976
lclavicle 1.09332e-014 -5.73742e-014
lhumerus 50.2612 -8.77019 77.5891
lradius 23.9068
lwrist 26.9455
lhand -28.7252 9.66977
lfingers 7.12502
lthumb -2.08627 39.6393
rfemur -67.3018 -15.4931 19.7438
rtibia 48.5828
rfoot -16.042 -6.92931
rtoes 0.0315714
lfemur -65.8671 -3.93298 -11.4592
ltibia 45.9085
lfoot -15.181 -1.24785
ltoes 14.1963
81
root -12.5175 17.3484 -16.3681 -183.211 83.8686 -219.539
lowerback 53.6212 -5.90488 2.64948
upperback 9.86085 -3.56327 -1.23036
thorax -10.1009 -0.757232 -1.09457
lowerneck -14.2689 -3.00955 -8.22362
upperneck 8.08297 -3.27699 7.09836
head 5.00596 -1.4012 3.28065
rclavicle 5.42682e-014 2.7167e-014
rhumerus 46.0302 12.7646 -70.996
rradius 31.5943
rwrist 3.81803
rhand -22.2311 -23.294
rfingers 7.12502
rthumb 4.18561 -53.2327
lclavicle 5.42682e-014 2.7167e-014
lhumerus 51.8847 -8.05945 76.6922
lradius 23.4321
lwrist 27.4206
lhand -28.8306 9.52207
lfingers 7.12502
lthumb -2.18813 39.4906
rfemur -67.7266 -15.6492 19.7312
rtibia 48.7589
rfoot -16.0105 -7.1057
rtoes 0.0505051
lfemur -66.3104 -4.3837 -11.2294
ltibia 45.87
lfoot -15.1676 -0.925898
ltoes 13.4579
82
root -12.4938 17.3542 -16.3582 -182.407 83.5239 -219.096
lowerback 54.2714 -6.42863 2.89703
upperback 9.96479 -3.97188 -1.45122
thorax -10.0771 -0.900067 -1.26006
lowerneck -13.8883 -2.81941 -8.49922
upperneck 7.95179 -3.00837 7.24042
head 4.8884 -1.27548 3.39606
rclavicle 4.49253e-014 -1.96548e-014
rhumerus 47.6558 13.1399 -70.3139
rradius 31.4715
rwrist 3.38089
rhand -22.2184 -23.3833
rfingers 7.12502
rthumb 4.19783 -53.3217
lclavicle 4.49253e-014 -1.96548e-014
lhumerus 53.1308 -7.56419 75.8241
lradius 23.4628
lwrist 28.2351
lhand -28.8792 9.22665
lfingers 7.12502
lthumb -2.235 39.1947
rfemur -68.0661 -15.9042 19.7816
rtibia 48.8457
rfoot -15.9993 -7.22164
rtoes -0.0625972
lfemur -66.6564 -4.79065 -11.043
ltibia 45.7331
lfoot -15.1054 -0.729102
ltoes 13.508
83
root -12.4685 17.3631 -16.345 -181.724 83.191 -218.742
lowerback 54.8325 -6.83214 3.11039
upperback 10.0507 -4.25761 -1.60695
thorax -10.0543 -0.994476 -1.39366
lowerneck -13.6601 -2.6872 -8.72802
upperneck 7.89665 -2.81334 7.33062
head 4.82279 -1.18509 3.4797
rclavicle 1.19271e-015 -9.16894e-015
rhumerus 48.982 13.3046 -69.7608
rradius 31.4427
rwrist 2.80396
rhand -22.2717 -23.0995
rfingers 7.12502
rthumb 4.14636 -53.0389
lclavicle 1.19271e-015 -9.16894e-015
lhumerus 54.0381 -7.41531 74.8878
lradius 24.0211
lwrist 29.3762
lhand -28.7501 8.79661
lfingers 7.12502
lthumb -2.11035 38.7659
rfemur -68.3429 -16.1969 19.8933
rtibia 48.8578
rfoot -16.0169 -7.29562
rtoes -0.339623
lfemur -66.9068 -5.08723 -10.9278
ltibia 45.5043
lfoot -14.9929 -0.672213
ltoes 14.197
84
root -12.4432 17.3754 -16.328 -181.213 82.9027 -218.535
lowerback 55.2911 -7.07862 3.26482
upperback 10.1263 -4.39533 -1.69453
thorax -10.0205 -1.03086 -1.49349
lowerneck -13.5748 -2.62181 -8.89017
upperneck 7.89286 -2.70665 7.37374
head 4.80165 -1.13655 3.5293
rclavicle 1.02175e-013 6.37353e-014
rhumerus 50.0079 13.2222 -69.3965
rradius 31.4745
rwrist 2.12526
rhand -22.2998 -22.4288
rfingers 7.12502
rthumb 4.11928 -52.3687
lclavicle 1.02175e-013 6.37353e-014
lhumerus 54.6962 -7.63055 73.8335
lradius 25.0185
lwrist 30.7274
lhand -28.3605 8.3314
lfingers 7.12502
lthumb -1.73405 38.3041
rfemur -68.5613 -16.4494 20.0278
rtibia 48.8017
rfoot -16.056 -7.37502
rtoes -0.74332
lfemur -67.0662 -5.24114 -10.8973
ltibia 45.1898
lfoot -14.8295 -0.727452
ltoes 15.1568
85
root -12.419 17.3916 -16.3079 -180.89 82.6696 -218.497
lowerback 55.64 -7.17142 3.35091
upperback 10.1962 -4.39802 -1.71887
thorax -9.97075 -1.01539 -1.55555
lowerneck -13.5833 -2.61143 -8.9784
upperneck 7.89134 -2.67488 7.36858
head 4.80098 -1.12391 3.54471
rclavicle 3.4191e-014 1.2921e-014
rhumerus 50.8 12.9322 -69.2738
rradius 31.4809
rwrist 1.40033
rhand -22.188 -21.4762
rfingers 7.12502
rthumb 4.22727 -51.414
lclavicle 3.4191e-014 1.2921e-014
lhumerus 55.2094 -8.11912 72.698
lradius 26.2912
lwrist 32.1165
lhand -27.7104 7.99914
lfingers 7.12502
lthumb -1.10624 37.976
rfemur -68.7143 -16.5998 20.1264
rtibia 48.682
rfoot -16.1018 -7.51032
rtoes -1.14843
lfemur -67.147 -5.26789 -10.9449
ltibia 44.7995
lfoot -14.6217 -0.838515
ltoes 15.9708
86
root -12.3963 17.4112 -16.2868 -180.729 82.4818 -218.605
lowerback 55.8782 -7.14027 3.37426
upperback 10.2606 -4.29943 -1.68564
thorax -9.90788 -0.96277 -1.57342
lowerneck -13.6105 -2.63361 -8.99776
upperneck 7.83533 -2.68984 7.30823
head 4.78868 -1.13505 3.52697
rclavicle 6.40087e-014 -2.60905e-015
rhumerus 51.5311 12.5045 -69.4908
rradius 31.2625
rwrist 0.729426
rhand -21.8716 -20.4386
rfingers 7.12502
rthumb 4.53275 -50.3701
lclavicle 6.40087e-014 -2.60905e-015
lhumerus 55.6614 -8.74604 71.5848
lradius 27.6582
lwrist 33.4077
lhand -26.8972 7.98525
lfingers 7.12502
lthumb -0.320801 37.9648
rfemur -68.7977 -16.6306 20.1445
rtibia 48.5081
rfoot -16.1411 -7.72263
rtoes -1.3911
lfemur -67.1689 -5.22148 -11.0424
ltibia 44.3521
lfoot -14.3883 -0.943157
ltoes 16.3441
